<svg width="242" height="80" viewBox="0 0 242 80" fill="none" xmlns="http://www.w3.org/2000/svg">
<path d="M4.62281 12.8504C5.00576 11.8224 5.53917 11.0228 6.22301 10.4231C6.90686 9.82341 7.72748 9.53784 8.69854 9.53784C9.17723 9.53784 9.60122 9.60923 9.9705 9.73774C10.3398 9.86624 10.668 10.0804 10.9416 10.3517C11.1604 10.5516 11.3382 10.8086 11.4886 11.0942C11.6391 11.3797 11.7759 11.7081 11.8853 12.0651C12.0631 11.7081 12.2545 11.394 12.4734 11.1085C12.6922 10.8229 12.9247 10.5802 13.1983 10.366C13.5265 10.109 13.8958 9.8948 14.3061 9.75202C14.7164 9.60923 15.1677 9.53784 15.6464 9.53784C16.2619 9.53784 16.8226 9.66635 17.356 9.93763C17.8895 10.1946 18.3545 10.623 18.7511 11.1941C19.1341 11.7795 19.4349 12.5363 19.6538 13.4501C19.8726 14.3639 19.982 15.4776 19.982 16.8055V33.768H15.2498V16.7912C15.2498 16.3343 15.2088 15.9631 15.1267 15.6775C15.0446 15.3776 14.9352 15.1492 14.7985 14.9779C14.6617 14.8208 14.4976 14.7066 14.3198 14.6352C14.142 14.5638 13.9505 14.5352 13.7727 14.5352C13.5675 14.5352 13.3897 14.5638 13.2393 14.6209C13.0888 14.678 12.9384 14.7637 12.8016 14.8636C12.6922 14.9636 12.5828 15.0778 12.5007 15.2063C12.4187 15.3348 12.3366 15.4776 12.2819 15.6347V33.7823H7.70012V16.7769C7.70012 16.32 7.65909 15.9488 7.59071 15.6632C7.52232 15.3777 7.41291 15.1492 7.28981 14.9779C7.15304 14.8208 7.0026 14.7066 6.8248 14.6352C6.647 14.5638 6.4692 14.5352 6.26404 14.5352C6.04521 14.5352 5.84006 14.5781 5.66226 14.6637C5.48446 14.7494 5.33401 14.8779 5.19724 15.035C5.1015 15.1492 5.00576 15.292 4.93738 15.449C4.86899 15.6061 4.80061 15.7917 4.73222 15.9773V33.768H0V9.98047H4.47236L4.62281 12.8647V12.8504Z" fill="white"/>
<path d="M31.6485 11.9937C31.9631 11.6082 32.305 11.2655 32.6469 10.9657C33.1803 10.5088 33.7684 10.1661 34.4249 9.90911C35.0677 9.66638 35.7516 9.53788 36.4765 9.53788C37.5296 9.53788 38.5143 9.72349 39.3896 10.0947C40.2786 10.466 41.0309 11.0514 41.6737 11.8367C42.3165 12.622 42.8089 13.6357 43.1645 14.8779C43.5201 16.1202 43.6979 17.6051 43.6979 19.347V33.7395H38.5006V19.3042C38.5006 18.4618 38.4049 17.7193 38.2271 17.1054C38.0493 16.4914 37.7894 15.9917 37.4475 15.6061C37.1056 15.2206 36.709 14.9493 36.2303 14.7637C35.7516 14.5781 35.2182 14.4924 34.6301 14.4924C34.1651 14.4924 33.7411 14.5495 33.3444 14.6495C32.9478 14.7494 32.5785 14.9065 32.264 15.1064C31.9631 15.2777 31.6895 15.4919 31.457 15.7489C31.2245 16.0059 30.992 16.2772 30.7868 16.5771V33.7395H25.5896V0H30.7868V13.2502C31.0467 12.7933 31.3339 12.3793 31.6622 11.9937H31.6485Z" fill="white"/>
<path d="M48.5532 16.7484C48.9088 15.2492 49.4285 13.9784 50.1124 12.9075C50.7962 11.8367 51.6305 11.0085 52.6152 10.4231C53.6 9.83772 54.7078 9.55215 55.9661 9.55215C57.0192 9.55215 57.9629 9.78061 58.7562 10.2232C59.5631 10.6659 60.2743 11.3084 60.9035 12.1222V0H66.1144V33.7395H61.4232L61.1633 31.2551C60.5342 32.1832 59.782 32.8971 58.9203 33.4111C58.0587 33.9251 57.0602 34.1822 55.9251 34.1822C54.6941 34.1822 53.5863 33.8823 52.6016 33.2683C51.6168 32.6544 50.7962 31.8262 50.126 30.7554C49.4422 29.6845 48.9225 28.4137 48.5532 26.9431C48.1976 25.4724 48.0061 23.8732 48.0061 22.1456V21.6887C48.0061 19.8896 48.1839 18.2333 48.5395 16.7484H48.5532ZM53.4222 24.9298C53.559 25.7865 53.8051 26.529 54.1197 27.1572C54.448 27.7998 54.8583 28.3138 55.378 28.6707C55.884 29.042 56.5132 29.2133 57.2517 29.2133C58.1544 29.2133 58.893 28.9849 59.4811 28.528C60.0692 28.0711 60.5479 27.4571 60.8898 26.6575V17.034C60.5479 16.2344 60.0692 15.6061 59.4811 15.1635C58.893 14.7209 58.1544 14.4924 57.2791 14.4924C56.5405 14.4924 55.9114 14.678 55.4053 15.0493C54.8856 15.4205 54.4616 15.9345 54.1471 16.5771C53.8188 17.2339 53.5863 18.0049 53.4359 18.8759C53.2854 19.7468 53.217 20.6749 53.217 21.6744V22.1313C53.217 23.1308 53.2854 24.0589 53.4359 24.9156L53.4222 24.9298Z" fill="white"/>
<path d="M83.9355 9.98031V28.7848H89.4199V33.7536H72.9255V28.7848H78.6835V14.9634H72.9255V9.98031H83.9355ZM78.5194 2.58418C78.6561 2.18439 78.8613 1.82743 79.1212 1.54186C79.381 1.27058 79.6956 1.04213 80.0649 0.885064C80.4342 0.728004 80.8445 0.642334 81.2821 0.642334C82.1985 0.642334 82.937 0.942177 83.4841 1.55614C84.0312 2.17011 84.2911 2.94113 84.2911 3.89778C84.2911 4.85442 84.0175 5.62545 83.4841 6.23941C82.937 6.85338 82.2122 7.15322 81.2821 7.15322C80.8308 7.15322 80.4205 7.06755 80.0649 6.91049C79.6956 6.75343 79.381 6.52498 79.1212 6.22513C78.8613 5.95385 78.6561 5.61117 78.5194 5.1971C78.3689 4.79731 78.3005 4.35468 78.3005 3.8835C78.3005 3.41232 78.3689 2.98397 78.5194 2.5699V2.58418Z" fill="white"/>
<path d="M111.221 9.72346C111.891 9.85196 112.425 9.98047 112.835 10.1233L112.069 16.2058C111.385 16.0202 110.688 15.8774 109.963 15.7774C109.251 15.6775 108.568 15.6347 107.911 15.6347C107.255 15.6347 106.626 15.706 106.092 15.8488C105.559 15.9916 105.066 16.1915 104.642 16.4771C104.136 16.8055 103.699 17.2053 103.329 17.705C102.974 18.2047 102.673 18.7902 102.427 19.4612V33.7395H97.2294V9.98047H102.071L102.276 13.3359L102.317 13.8642C103.138 12.522 104.123 11.4654 105.271 10.6944C106.42 9.92335 107.665 9.53784 109.033 9.53784C109.812 9.53784 110.537 9.59495 111.207 9.72346H111.221Z" fill="white"/>
<path d="M134.198 9.72346C134.868 9.85196 135.402 9.98047 135.812 10.1233L135.046 16.2058C134.362 16.0202 133.665 15.8774 132.94 15.7774C132.229 15.6775 131.545 15.6347 130.888 15.6347C130.232 15.6347 129.603 15.706 129.069 15.8488C128.536 15.9916 128.044 16.1915 127.62 16.4771C127.114 16.8055 126.676 17.2053 126.307 17.705C125.951 18.2047 125.65 18.7902 125.404 19.4612V33.7395H120.207V9.98047H125.048L125.254 13.3359L125.295 13.8642C126.115 12.522 127.1 11.4654 128.249 10.6944C129.398 9.92335 130.642 9.53784 132.01 9.53784C132.79 9.53784 133.514 9.59495 134.185 9.72346H134.198Z" fill="white"/>
<path d="M153.305 26.2577C153.168 25.9864 152.908 25.7151 152.553 25.4724C152.183 25.2439 151.691 25.0155 151.076 24.8156C150.46 24.6157 149.694 24.4015 148.764 24.2016C147.574 23.9303 146.494 23.5734 145.523 23.1593C144.552 22.7452 143.704 22.2312 143.006 21.6315C142.309 21.0461 141.762 20.3608 141.365 19.5897C140.968 18.8187 140.777 17.9192 140.777 16.9054C140.777 15.8917 140.982 14.9921 141.379 14.0926C141.775 13.1931 142.35 12.4221 143.102 11.7367C143.854 11.0513 144.757 10.523 145.837 10.1375C146.904 9.73774 148.121 9.53784 149.462 9.53784C150.802 9.53784 152.129 9.73774 153.25 10.1233C154.372 10.5088 155.329 11.0371 156.109 11.7224C156.875 12.4078 157.476 13.2216 157.887 14.164C158.297 15.1064 158.502 16.1201 158.502 17.2195H153.305C153.305 16.8198 153.25 16.4485 153.141 16.1058C153.031 15.7632 152.854 15.449 152.635 15.1778C152.32 14.8065 151.896 14.521 151.376 14.2925C150.843 14.0783 150.214 13.9641 149.462 13.9641C148.833 13.9641 148.272 14.0355 147.793 14.1783C147.314 14.3211 146.931 14.5352 146.631 14.7922C146.357 15.0207 146.152 15.3063 146.001 15.6204C145.851 15.9345 145.783 16.2629 145.783 16.6199C145.783 16.9768 145.851 17.2909 145.974 17.5908C146.097 17.8906 146.316 18.1619 146.644 18.3904C146.959 18.6331 147.383 18.8615 147.93 19.0614C148.477 19.2613 149.175 19.4327 150.022 19.5755C151.24 19.8039 152.375 20.1038 153.428 20.475C154.481 20.8462 155.384 21.3031 156.136 21.8743C156.902 22.4597 157.49 23.1736 157.928 23.9874C158.352 24.8156 158.571 25.8008 158.571 26.943C158.571 27.9996 158.352 28.9706 157.928 29.8558C157.504 30.7411 156.888 31.5121 156.109 32.1546C155.315 32.7971 154.344 33.2969 153.223 33.6538C152.101 34.0108 150.843 34.1964 149.462 34.1964C147.944 34.1964 146.603 33.9679 145.427 33.4968C144.264 33.0256 143.28 32.4116 142.5 31.6549C141.721 30.9124 141.119 30.0557 140.722 29.0991C140.312 28.1424 140.12 27.1715 140.12 26.2148H145.071C145.112 26.8574 145.263 27.4142 145.523 27.8711C145.783 28.328 146.125 28.6993 146.535 28.9848C146.945 29.2847 147.41 29.4846 147.944 29.6274C148.477 29.7559 149.024 29.8272 149.585 29.8272C150.255 29.8272 150.843 29.7559 151.349 29.6131C151.855 29.4703 152.265 29.2847 152.594 29.0562C152.908 28.8278 153.141 28.5565 153.291 28.2424C153.442 27.9425 153.524 27.5998 153.524 27.2286C153.524 26.8574 153.455 26.5432 153.305 26.2577Z" fill="white"/>
<path d="M165.341 43.2345C164.971 43.1631 164.561 43.0489 164.123 42.9061L164.753 38.2514C164.958 38.2514 165.231 38.2514 165.56 38.28C165.888 38.3085 166.161 38.3085 166.353 38.3085C166.763 38.3085 167.132 38.1515 167.447 37.8516C167.761 37.5518 168.035 37.2234 168.254 36.8807C168.473 36.538 168.65 36.2667 168.746 36.0954C168.842 35.9241 168.979 35.6671 169.129 35.3529L170.333 32.74L161.771 9.98047H167.461L172.097 23.9018L172.658 26.3148L173.424 23.9446L178.047 9.98047H183.791L173.533 37.3091C173.314 37.9087 173.013 38.5655 172.672 39.2652C172.316 39.9648 171.865 40.6216 171.331 41.2213C170.798 41.821 170.141 42.3207 169.375 42.7348C168.609 43.1489 167.707 43.3488 166.654 43.3488C166.161 43.3488 165.724 43.3059 165.354 43.2345H165.341Z" fill="white"/>
<path d="M198.74 32.74C198.658 32.3545 198.576 31.9547 198.521 31.5264C198.234 31.8976 197.905 32.2403 197.536 32.5544C197.167 32.8828 196.757 33.1541 196.305 33.3825C195.84 33.6253 195.334 33.8252 194.787 33.9679C194.24 34.1107 193.652 34.1821 193.009 34.1821C191.97 34.1821 191.026 34.0108 190.164 33.6538C189.303 33.2969 188.55 32.8114 187.935 32.1832C187.306 31.5549 186.827 30.7982 186.472 29.9272C186.116 29.0562 185.952 28.1139 185.952 27.0858C185.952 25.7722 186.171 24.6014 186.608 23.5876C187.046 22.5739 187.702 21.7315 188.564 21.0747C189.344 20.475 190.315 20.0181 191.477 19.704C192.64 19.3898 193.953 19.2328 195.457 19.2328H198.357V17.8335C198.357 17.2767 198.288 16.7769 198.138 16.3343C197.988 15.8917 197.769 15.5062 197.468 15.1778C197.153 14.8351 196.77 14.5781 196.305 14.3924C195.84 14.2068 195.293 14.1212 194.664 14.1212C194.117 14.1212 193.638 14.1926 193.242 14.3496C192.845 14.5067 192.517 14.7208 192.271 14.9921C192.052 15.2349 191.874 15.5347 191.778 15.8917C191.682 16.2486 191.614 16.6341 191.614 17.0625H186.417C186.417 16.0487 186.608 15.0921 186.991 14.1783C187.374 13.2645 187.935 12.4792 188.66 11.7795C189.385 11.0942 190.274 10.5516 191.327 10.1375C192.38 9.73774 193.584 9.53784 194.951 9.53784C196.169 9.53784 197.304 9.70918 198.357 10.0661C199.41 10.4231 200.326 10.9371 201.092 11.6225C201.858 12.3078 202.474 13.1788 202.911 14.2211C203.349 15.2634 203.568 16.4771 203.568 17.8621V28.0567C203.568 29.3275 203.636 30.3841 203.773 31.2265C203.91 32.0547 204.115 32.7828 204.375 33.3825V33.7538H199.109C198.986 33.4682 198.877 33.1255 198.795 32.74H198.74ZM195.567 29.2418C196.018 29.0991 196.415 28.8992 196.784 28.6707C197.14 28.4423 197.454 28.171 197.714 27.8711C197.974 27.5713 198.179 27.2714 198.329 26.9573V22.8737H195.676C194.869 22.8737 194.172 22.9594 193.597 23.145C193.023 23.3306 192.558 23.5876 192.189 23.9018C191.833 24.2444 191.559 24.6442 191.382 25.1011C191.204 25.558 191.122 26.0578 191.122 26.6004C191.122 27.0287 191.19 27.4142 191.313 27.7712C191.436 28.1281 191.628 28.428 191.888 28.685C192.134 28.9134 192.448 29.1133 192.818 29.2418C193.187 29.3846 193.611 29.456 194.103 29.456C194.623 29.456 195.115 29.3846 195.567 29.2418Z" fill="white"/>
<path d="M235.88 28.4708V33.7395H242V28.4708H236.023H235.88ZM226.942 0H221.731V12.108C221.102 11.2941 220.39 10.6516 219.583 10.209C218.79 9.76633 217.86 9.53788 216.793 9.53788C215.535 9.53788 214.414 9.83772 213.443 10.4231C212.458 11.0085 211.623 11.8367 210.94 12.8933C210.256 13.9641 209.736 15.2492 209.38 16.7484C209.025 18.2333 208.847 19.8896 208.847 21.6887V22.1456C208.847 23.8732 209.025 25.4724 209.394 26.9431C209.75 28.4137 210.269 29.6845 210.967 30.7554C211.637 31.8262 212.458 32.6687 213.443 33.2683C214.414 33.8823 215.521 34.1822 216.752 34.1822C217.888 34.1822 218.886 33.9251 219.748 33.4111C220.609 32.8971 221.361 32.1832 221.991 31.2694L222.25 33.7395H229.855V28.4423H226.914L226.942 0ZM221.731 26.6718C221.375 27.4571 220.91 28.0853 220.322 28.5422C219.72 28.9991 218.982 29.2133 218.079 29.2133C217.354 29.2133 216.725 29.042 216.219 28.6707C215.699 28.2995 215.289 27.7998 214.961 27.1572C214.632 26.529 214.4 25.7865 214.263 24.9298C214.113 24.0731 214.044 23.1451 214.044 22.1456V21.6887C214.044 20.6892 214.126 19.7611 214.277 18.8901C214.414 18.0192 214.66 17.2481 214.974 16.5913C215.303 15.9488 215.727 15.4348 216.246 15.0636C216.766 14.6923 217.381 14.5067 218.12 14.5067C219.009 14.5067 219.748 14.7209 220.322 15.1778C220.91 15.6204 221.375 16.2487 221.731 17.0482V26.6718Z" fill="white"/>
<path d="M1.168 72.3489V61.2769H7.6L7.344 62.9889H3.52V66.1249H6.848V67.8369H3.52V72.3489H1.168ZM12.754 63.6289C13.01 63.6289 13.2927 63.6715 13.602 63.7569L13.218 65.9489C12.9193 65.8742 12.6687 65.8369 12.466 65.8369C11.9647 65.8369 11.5753 66.0129 11.298 66.3649C11.0207 66.7169 10.802 67.2502 10.642 67.9649V72.3489H8.37V63.8689H10.338L10.546 65.5169C10.7487 64.9195 11.042 64.4555 11.426 64.1249C11.8207 63.7942 12.2633 63.6289 12.754 63.6289ZM17.813 63.6129C19.0823 63.6129 20.0743 64.0129 20.789 64.8129C21.5037 65.6022 21.861 66.7009 21.861 68.1089C21.861 69.0049 21.6957 69.7942 21.365 70.4769C21.045 71.1489 20.5757 71.6715 19.957 72.0449C19.349 72.4182 18.629 72.6049 17.797 72.6049C16.5277 72.6049 15.5303 72.2102 14.805 71.4209C14.0903 70.6209 13.733 69.5169 13.733 68.1089C13.733 67.2129 13.893 66.4289 14.213 65.7569C14.5437 65.0742 15.013 64.5462 15.621 64.1729C16.2397 63.7995 16.9703 63.6129 17.813 63.6129ZM17.813 65.3089C17.237 65.3089 16.805 65.5382 16.517 65.9969C16.2397 66.4449 16.101 67.1489 16.101 68.1089C16.101 69.0689 16.2397 69.7782 16.517 70.2369C16.805 70.6849 17.2317 70.9089 17.797 70.9089C18.3623 70.9089 18.7837 70.6849 19.061 70.2369C19.349 69.7782 19.493 69.0689 19.493 68.1089C19.493 67.1489 19.3543 66.4449 19.077 65.9969C18.7997 65.5382 18.3783 65.3089 17.813 65.3089ZM28.3248 63.6129C29.0714 63.6129 29.6528 63.8422 30.0688 64.3009C30.4848 64.7489 30.6927 65.3729 30.6927 66.1729V72.3489H28.4208V66.5569C28.4208 66.0982 28.3408 65.7782 28.1808 65.5969C28.0314 65.4049 27.8021 65.3089 27.4928 65.3089C27.1728 65.3089 26.8794 65.4102 26.6128 65.6129C26.3568 65.8049 26.1061 66.0982 25.8608 66.4929V72.3489H23.5888V63.8689H25.5568L25.7328 64.9409C26.0848 64.5035 26.4688 64.1729 26.8848 63.9489C27.3114 63.7249 27.7914 63.6129 28.3248 63.6129ZM37.9264 71.9489C37.617 72.1622 37.265 72.3222 36.8704 72.4289C36.4864 72.5462 36.1024 72.6049 35.7184 72.6049C34.8437 72.5942 34.1824 72.3435 33.7344 71.8529C33.2864 71.3622 33.0624 70.6422 33.0624 69.6929V65.4689H31.7984V63.8689H33.0624V62.0129L35.3344 61.7409V63.8689H37.2864L37.0624 65.4689H35.3344V69.6449C35.3344 70.0502 35.4037 70.3435 35.5424 70.5249C35.681 70.7062 35.8944 70.7969 36.1824 70.7969C36.4704 70.7969 36.7904 70.7009 37.1424 70.5089L37.9264 71.9489ZM45.8349 67.9169C45.8349 68.0235 45.8189 68.3169 45.7869 68.7969H40.4909C40.5655 69.5649 40.7735 70.1089 41.1149 70.4289C41.4562 70.7489 41.9202 70.9089 42.5069 70.9089C42.8695 70.9089 43.2109 70.8502 43.5309 70.7329C43.8509 70.6155 44.1975 70.4289 44.5709 70.1729L45.5149 71.4529C44.5655 72.2209 43.4935 72.6049 42.2989 72.6049C40.9655 72.6049 39.9415 72.2049 39.2269 71.4049C38.5122 70.6049 38.1549 69.5222 38.1549 68.1569C38.1549 67.2929 38.3042 66.5195 38.6029 65.8369C38.9122 65.1435 39.3549 64.5995 39.9309 64.2049C40.5175 63.8102 41.2109 63.6129 42.0109 63.6129C43.2162 63.6129 44.1549 63.9915 44.8269 64.7489C45.4989 65.5062 45.8349 66.5622 45.8349 67.9169ZM43.5789 67.2769C43.5789 65.8689 43.0722 65.1649 42.0589 65.1649C41.5895 65.1649 41.2215 65.3409 40.9549 65.6929C40.6989 66.0342 40.5442 66.5942 40.4909 67.3729H43.5789V67.2769ZM52.2154 63.6129C52.962 63.6129 53.5434 63.8422 53.9594 64.3009C54.3754 64.7489 54.5834 65.3729 54.5834 66.1729V72.3489H52.3114V66.5569C52.3114 66.0982 52.2314 65.7782 52.0714 65.5969C51.922 65.4049 51.6927 65.3089 51.3834 65.3089C51.0634 65.3089 50.77 65.4102 50.5034 65.6129C50.2474 65.8049 49.9967 66.0982 49.7514 66.4929V72.3489H47.4794V63.8689H49.4474L49.6234 64.9409C49.9754 64.5035 50.3594 64.1729 50.7754 63.9489C51.202 63.7249 51.682 63.6129 52.2154 63.6129ZM64.089 60.4929V72.3489H62.089L61.961 71.3089C61.3637 72.1729 60.553 72.6049 59.529 72.6049C58.4837 72.6049 57.6837 72.2049 57.129 71.4049C56.585 70.5942 56.313 69.4955 56.313 68.1089C56.313 67.2342 56.4517 66.4609 56.729 65.7889C57.017 65.1062 57.4223 64.5729 57.945 64.1889C58.4677 63.8049 59.0703 63.6129 59.753 63.6129C60.5423 63.6129 61.2303 63.8955 61.817 64.4609V60.2369L64.089 60.4929ZM60.201 70.9089C60.5317 70.9089 60.825 70.8289 61.081 70.6689C61.337 70.4982 61.5823 70.2369 61.817 69.8849V66.0929C61.593 65.8262 61.3637 65.6289 61.129 65.5009C60.905 65.3622 60.6437 65.2929 60.345 65.2929C59.8223 65.2929 59.4117 65.5222 59.113 65.9809C58.825 66.4395 58.681 67.1489 58.681 68.1089C58.681 69.1222 58.809 69.8422 59.065 70.2689C59.3317 70.6955 59.7103 70.9089 60.201 70.9089ZM73.1734 61.2769C74.9014 61.2769 76.2827 61.6715 77.3174 62.4609C78.3627 63.2395 78.8854 64.6742 78.8854 66.7649C78.8854 68.8129 78.3734 70.2582 77.3494 71.1009C76.336 71.9329 75.0347 72.3489 73.4454 72.3489H70.2774V61.2769H73.1734ZM72.6294 63.0049V70.6209H73.5894C74.496 70.6209 75.1947 70.3435 75.6854 69.7889C76.1867 69.2235 76.4374 68.2155 76.4374 66.7649C76.4374 65.7622 76.3094 64.9835 76.0534 64.4289C75.808 63.8742 75.4774 63.5009 75.0614 63.3089C74.6454 63.1062 74.1387 63.0049 73.5414 63.0049H72.6294ZM87.8036 67.9169C87.8036 68.0235 87.7876 68.3169 87.7556 68.7969H82.4596C82.5343 69.5649 82.7423 70.1089 83.0836 70.4289C83.425 70.7489 83.889 70.9089 84.4756 70.9089C84.8383 70.9089 85.1796 70.8502 85.4996 70.7329C85.8196 70.6155 86.1663 70.4289 86.5396 70.1729L87.4836 71.4529C86.5343 72.2209 85.4623 72.6049 84.2676 72.6049C82.9343 72.6049 81.9103 72.2049 81.1956 71.4049C80.481 70.6049 80.1236 69.5222 80.1236 68.1569C80.1236 67.2929 80.273 66.5195 80.5716 65.8369C80.881 65.1435 81.3236 64.5995 81.8996 64.2049C82.4863 63.8102 83.1796 63.6129 83.9796 63.6129C85.185 63.6129 86.1236 63.9915 86.7956 64.7489C87.4676 65.5062 87.8036 66.5622 87.8036 67.9169ZM85.5476 67.2769C85.5476 65.8689 85.041 65.1649 84.0276 65.1649C83.5583 65.1649 83.1903 65.3409 82.9236 65.6929C82.6676 66.0342 82.513 66.5942 82.4596 67.3729H85.5476V67.2769ZM96.3788 63.8689L93.6588 72.3489H90.9548L88.1867 63.8689H90.6508L92.3307 70.5729L94.0428 63.8689H96.3788ZM104.522 67.9169C104.522 68.0235 104.506 68.3169 104.474 68.7969H99.1784C99.253 69.5649 99.461 70.1089 99.8024 70.4289C100.144 70.7489 100.608 70.9089 101.194 70.9089C101.557 70.9089 101.898 70.8502 102.218 70.7329C102.538 70.6155 102.885 70.4289 103.258 70.1729L104.202 71.4529C103.253 72.2209 102.181 72.6049 100.986 72.6049C99.653 72.6049 98.629 72.2049 97.9144 71.4049C97.1997 70.6049 96.8424 69.5222 96.8424 68.1569C96.8424 67.2929 96.9917 66.5195 97.2904 65.8369C97.5997 65.1435 98.0424 64.5995 98.6184 64.2049C99.205 63.8102 99.8984 63.6129 100.698 63.6129C101.904 63.6129 102.842 63.9915 103.514 64.7489C104.186 65.5062 104.522 66.5622 104.522 67.9169ZM102.266 67.2769C102.266 65.8689 101.76 65.1649 100.746 65.1649C100.277 65.1649 99.909 65.3409 99.6424 65.6929C99.3864 66.0342 99.2317 66.5942 99.1784 67.3729H102.266V67.2769ZM108.279 72.6049C107.586 72.6049 107.047 72.4075 106.663 72.0129C106.279 71.6075 106.087 71.0369 106.087 70.3009V60.4929L108.359 60.2369V70.2369C108.359 70.6102 108.514 70.7969 108.823 70.7969C108.994 70.7969 109.143 70.7649 109.271 70.7009L109.735 72.3169C109.298 72.5089 108.812 72.6049 108.279 72.6049ZM114.391 63.6129C115.66 63.6129 116.652 64.0129 117.367 64.8129C118.082 65.6022 118.439 66.7009 118.439 68.1089C118.439 69.0049 118.274 69.7942 117.943 70.4769C117.623 71.1489 117.154 71.6715 116.535 72.0449C115.927 72.4182 115.207 72.6049 114.375 72.6049C113.106 72.6049 112.108 72.2102 111.383 71.4209C110.668 70.6209 110.311 69.5169 110.311 68.1089C110.311 67.2129 110.471 66.4289 110.791 65.7569C111.122 65.0742 111.591 64.5462 112.199 64.1729C112.818 63.7995 113.548 63.6129 114.391 63.6129ZM114.391 65.3089C113.815 65.3089 113.383 65.5382 113.095 65.9969C112.818 66.4449 112.679 67.1489 112.679 68.1089C112.679 69.0689 112.818 69.7782 113.095 70.2369C113.383 70.6849 113.81 70.9089 114.375 70.9089C114.94 70.9089 115.362 70.6849 115.639 70.2369C115.927 69.7782 116.071 69.0689 116.071 68.1089C116.071 67.1489 115.932 66.4449 115.655 65.9969C115.378 65.5382 114.956 65.3089 114.391 65.3089ZM124.743 63.6129C125.81 63.6129 126.599 64.0075 127.111 64.7969C127.634 65.5755 127.895 66.6742 127.895 68.0929C127.895 68.9569 127.762 69.7302 127.495 70.4129C127.228 71.0955 126.839 71.6342 126.327 72.0289C125.826 72.4129 125.228 72.6049 124.535 72.6049C123.671 72.6049 122.972 72.3009 122.439 71.6929V75.6129L120.167 75.8689V63.8689H122.167L122.279 64.8609C122.599 64.4449 122.972 64.1355 123.399 63.9329C123.836 63.7195 124.284 63.6129 124.743 63.6129ZM123.863 70.9089C124.972 70.9089 125.527 69.9755 125.527 68.1089C125.527 67.0849 125.404 66.3595 125.159 65.9329C124.914 65.5062 124.54 65.2929 124.039 65.2929C123.719 65.2929 123.42 65.3942 123.143 65.5969C122.876 65.7889 122.642 66.0502 122.439 66.3809V70.0769C122.802 70.6315 123.276 70.9089 123.863 70.9089ZM136.866 67.9169C136.866 68.0235 136.85 68.3169 136.818 68.7969H131.522C131.597 69.5649 131.805 70.1089 132.146 70.4289C132.487 70.7489 132.951 70.9089 133.538 70.9089C133.901 70.9089 134.242 70.8502 134.562 70.7329C134.882 70.6155 135.229 70.4289 135.602 70.1729L136.546 71.4529C135.597 72.2209 134.525 72.6049 133.33 72.6049C131.997 72.6049 130.973 72.2049 130.258 71.4049C129.543 70.6049 129.186 69.5222 129.186 68.1569C129.186 67.2929 129.335 66.5195 129.634 65.8369C129.943 65.1435 130.386 64.5995 130.962 64.2049C131.549 63.8102 132.242 63.6129 133.042 63.6129C134.247 63.6129 135.186 63.9915 135.858 64.7489C136.53 65.5062 136.866 66.5622 136.866 67.9169ZM134.61 67.2769C134.61 65.8689 134.103 65.1649 133.09 65.1649C132.621 65.1649 132.253 65.3409 131.986 65.6929C131.73 66.0342 131.575 66.5942 131.522 67.3729H134.61V67.2769ZM142.895 63.6289C143.151 63.6289 143.433 63.6715 143.743 63.7569L143.359 65.9489C143.06 65.8742 142.809 65.8369 142.607 65.8369C142.105 65.8369 141.716 66.0129 141.439 66.3649C141.161 66.7169 140.943 67.2502 140.783 67.9649V72.3489H138.511V63.8689H140.479L140.687 65.5169C140.889 64.9195 141.183 64.4555 141.567 64.1249C141.961 63.7942 142.404 63.6289 142.895 63.6289ZM151.768 59.4049V74.0129H149.672V59.4049H151.768ZM167.128 68.7009C167.128 69.4582 166.968 70.1302 166.648 70.7169C166.328 71.3035 165.848 71.7675 165.208 72.1089C164.578 72.4395 163.81 72.6049 162.904 72.6049C161.538 72.6049 160.493 72.2529 159.768 71.5489C159.053 70.8342 158.696 69.8849 158.696 68.7009V61.2769H161.048V68.5889C161.048 69.3355 161.197 69.8955 161.496 70.2689C161.794 70.6315 162.264 70.8129 162.904 70.8129C163.544 70.8129 164.013 70.6315 164.312 70.2689C164.621 69.8955 164.776 69.3355 164.776 68.5889V61.2769H167.128V68.7009ZM171.676 61.2769V72.3489H169.324V61.2769H171.676ZM180.83 61.2769C182.558 61.2769 183.939 61.6715 184.974 62.4609C186.019 63.2395 186.542 64.6742 186.542 66.7649C186.542 68.8129 186.03 70.2582 185.006 71.1009C183.992 71.9329 182.691 72.3489 181.102 72.3489H177.934V61.2769H180.83ZM180.286 63.0049V70.6209H181.246C182.152 70.6209 182.851 70.3435 183.342 69.7889C183.843 69.2235 184.094 68.2155 184.094 66.7649C184.094 65.7622 183.966 64.9835 183.71 64.4289C183.464 63.8742 183.134 63.5009 182.718 63.3089C182.302 63.1062 181.795 63.0049 181.198 63.0049H180.286ZM195.46 67.9169C195.46 68.0235 195.444 68.3169 195.412 68.7969H190.116C190.191 69.5649 190.399 70.1089 190.74 70.4289C191.081 70.7489 191.545 70.9089 192.132 70.9089C192.495 70.9089 192.836 70.8502 193.156 70.7329C193.476 70.6155 193.823 70.4289 194.196 70.1729L195.14 71.4529C194.191 72.2209 193.119 72.6049 191.924 72.6049C190.591 72.6049 189.567 72.2049 188.852 71.4049C188.137 70.6049 187.78 69.5222 187.78 68.1569C187.78 67.2929 187.929 66.5195 188.228 65.8369C188.537 65.1435 188.98 64.5995 189.556 64.2049C190.143 63.8102 190.836 63.6129 191.636 63.6129C192.841 63.6129 193.78 63.9915 194.452 64.7489C195.124 65.5062 195.46 66.5622 195.46 67.9169ZM193.204 67.2769C193.204 65.8689 192.697 65.1649 191.684 65.1649C191.215 65.1649 190.847 65.3409 190.58 65.6929C190.324 66.0342 190.169 66.5942 190.116 67.3729H193.204V67.2769ZM199.92 63.6129C201.115 63.6129 202.139 63.9542 202.992 64.6369L202.128 65.9329C201.414 65.4849 200.71 65.2609 200.016 65.2609C199.643 65.2609 199.355 65.3302 199.152 65.4689C198.95 65.6075 198.848 65.7942 198.848 66.0289C198.848 66.1995 198.891 66.3435 198.976 66.4609C199.072 66.5782 199.243 66.6902 199.488 66.7969C199.744 66.9035 200.123 67.0315 200.624 67.1809C201.52 67.4262 202.187 67.7569 202.624 68.1729C203.062 68.5782 203.28 69.1382 203.28 69.8529C203.28 70.4182 203.115 70.9089 202.784 71.3249C202.464 71.7409 202.027 72.0609 201.472 72.2849C200.918 72.4982 200.299 72.6049 199.616 72.6049C198.902 72.6049 198.251 72.4982 197.664 72.2849C197.078 72.0609 196.576 71.7569 196.16 71.3729L197.28 70.1249C197.995 70.6795 198.752 70.9569 199.552 70.9569C199.979 70.9569 200.315 70.8769 200.56 70.7169C200.816 70.5462 200.944 70.3169 200.944 70.0289C200.944 69.8049 200.896 69.6289 200.8 69.5009C200.704 69.3729 200.528 69.2555 200.272 69.1489C200.016 69.0315 199.616 68.8982 199.072 68.7489C198.219 68.5142 197.584 68.1835 197.168 67.7569C196.763 67.3195 196.56 66.7809 196.56 66.1409C196.56 65.6609 196.699 65.2289 196.976 64.8449C197.254 64.4609 197.643 64.1622 198.144 63.9489C198.656 63.7249 199.248 63.6129 199.92 63.6129ZM207.033 63.8689V72.3489H204.761V63.8689H207.033ZM205.881 59.5009C206.286 59.5009 206.617 59.6289 206.873 59.8849C207.139 60.1302 207.273 60.4449 207.273 60.8289C207.273 61.2129 207.139 61.5329 206.873 61.7889C206.617 62.0342 206.286 62.1569 205.881 62.1569C205.475 62.1569 205.145 62.0342 204.889 61.7889C204.633 61.5329 204.505 61.2129 204.505 60.8289C204.505 60.4449 204.633 60.1302 204.889 59.8849C205.145 59.6289 205.475 59.5009 205.881 59.5009ZM216.86 64.3329C216.306 64.5462 215.49 64.6529 214.412 64.6529C214.946 64.8875 215.34 65.1809 215.596 65.5329C215.852 65.8742 215.98 66.3062 215.98 66.8289C215.98 67.3729 215.836 67.8635 215.548 68.3009C215.271 68.7275 214.866 69.0635 214.332 69.3089C213.81 69.5542 213.196 69.6769 212.492 69.6769C212.119 69.6769 211.788 69.6395 211.5 69.5649C211.287 69.7035 211.18 69.8902 211.18 70.1249C211.18 70.2955 211.244 70.4342 211.372 70.5409C211.511 70.6369 211.772 70.6849 212.156 70.6849H213.452C214.082 70.6849 214.631 70.7915 215.1 71.0049C215.58 71.2075 215.948 71.4955 216.204 71.8689C216.471 72.2315 216.604 72.6475 216.604 73.1169C216.604 73.9809 216.231 74.6529 215.484 75.1329C214.748 75.6235 213.682 75.8689 212.284 75.8689C211.282 75.8689 210.487 75.7622 209.9 75.5489C209.324 75.3462 208.919 75.0475 208.684 74.6529C208.45 74.2582 208.332 73.7622 208.332 73.1649H210.364C210.364 73.4422 210.418 73.6609 210.524 73.8209C210.631 73.9915 210.823 74.1142 211.1 74.1889C211.388 74.2742 211.799 74.3169 212.332 74.3169C213.068 74.3169 213.58 74.2262 213.868 74.0449C214.167 73.8635 214.316 73.6075 214.316 73.2769C214.316 72.9782 214.204 72.7489 213.98 72.5889C213.756 72.4289 213.426 72.3489 212.988 72.3489H211.74C210.898 72.3489 210.268 72.1942 209.852 71.8849C209.436 71.5649 209.228 71.1649 209.228 70.6849C209.228 70.3862 209.314 70.0982 209.484 69.8209C209.666 69.5329 209.911 69.2929 210.22 69.1009C209.698 68.8129 209.314 68.4769 209.068 68.0929C208.834 67.6982 208.716 67.2289 208.716 66.6849C208.716 66.0662 208.866 65.5275 209.164 65.0689C209.474 64.5995 209.9 64.2422 210.444 63.9969C210.999 63.7409 211.628 63.6129 212.332 63.6129C213.207 63.6342 213.927 63.5595 214.492 63.3889C215.058 63.2182 215.66 62.9515 216.3 62.5889L216.86 64.3329ZM212.38 65.1329C211.954 65.1329 211.612 65.2715 211.356 65.5489C211.111 65.8155 210.988 66.1835 210.988 66.6529C210.988 67.1329 211.111 67.5115 211.356 67.7889C211.612 68.0662 211.959 68.2049 212.396 68.2049C212.855 68.2049 213.202 68.0715 213.436 67.8049C213.671 67.5382 213.788 67.1435 213.788 66.6209C213.788 65.6289 213.319 65.1329 212.38 65.1329ZM222.715 63.6129C223.462 63.6129 224.043 63.8422 224.459 64.3009C224.875 64.7489 225.083 65.3729 225.083 66.1729V72.3489H222.811V66.5569C222.811 66.0982 222.731 65.7782 222.571 65.5969C222.422 65.4049 222.193 65.3089 221.883 65.3089C221.563 65.3089 221.27 65.4102 221.003 65.6129C220.747 65.8049 220.497 66.0982 220.251 66.4929V72.3489H217.979V63.8689H219.947L220.123 64.9409C220.475 64.5035 220.859 64.1729 221.275 63.9489C221.702 63.7249 222.182 63.6129 222.715 63.6129ZM234.413 67.9169C234.413 68.0235 234.397 68.3169 234.365 68.7969H229.069C229.144 69.5649 229.352 70.1089 229.693 70.4289C230.034 70.7489 230.498 70.9089 231.085 70.9089C231.448 70.9089 231.789 70.8502 232.109 70.7329C232.429 70.6155 232.776 70.4289 233.149 70.1729L234.093 71.4529C233.144 72.2209 232.072 72.6049 230.877 72.6049C229.544 72.6049 228.52 72.2049 227.805 71.4049C227.09 70.6049 226.733 69.5222 226.733 68.1569C226.733 67.2929 226.882 66.5195 227.181 65.8369C227.49 65.1435 227.933 64.5995 228.509 64.2049C229.096 63.8102 229.789 63.6129 230.589 63.6129C231.794 63.6129 232.733 63.9915 233.405 64.7489C234.077 65.5062 234.413 66.5622 234.413 67.9169ZM232.157 67.2769C232.157 65.8689 231.65 65.1649 230.637 65.1649C230.168 65.1649 229.8 65.3409 229.533 65.6929C229.277 66.0342 229.122 66.5942 229.069 67.3729H232.157V67.2769ZM240.442 63.6289C240.698 63.6289 240.98 63.6715 241.29 63.7569L240.906 65.9489C240.607 65.8742 240.356 65.8369 240.154 65.8369C239.652 65.8369 239.263 66.0129 238.986 66.3649C238.708 66.7169 238.49 67.2502 238.33 67.9649V72.3489H236.058V63.8689H238.026L238.234 65.5169C238.436 64.9195 238.73 64.4555 239.114 64.1249C239.508 63.7942 239.951 63.6289 240.442 63.6289Z" fill="#EEEDEB"/>
</svg>
