<svg width="24" height="18" viewBox="0 0 24 18" fill="none" xmlns="http://www.w3.org/2000/svg">
<g clip-path="url(#clip0_216_83)">
<path d="M23.5222 10.1047L16.1776 17.0954C15.6027 17.6428 14.6795 17.6334 14.1176 17.0749C13.5556 16.5165 13.5637 15.6199 14.1386 15.074L18.926 10.5169C19.0053 10.4414 18.9503 10.3108 18.8401 10.3108H1.45759C0.652676 10.3108 0 9.67686 0 8.89505C0 8.11324 0.652676 7.4793 1.45759 7.4793H18.6166C18.7268 7.4793 18.7818 7.34874 18.7025 7.27323L14.137 2.92531C13.562 2.37789 13.554 1.48282 14.1159 0.924387C14.6795 0.365952 15.6011 0.356514 16.176 0.903937L23.5222 7.89459C24.1603 8.50179 24.1603 9.49753 23.5222 10.1047Z" fill="black"/>
</g>
<defs>
<clipPath id="clip0_216_83">
<rect width="24" height="17" fill="white" transform="translate(0 0.5)"/>
</clipPath>
</defs>
</svg>
