<svg width="36" height="36" viewBox="0 0 36 36" fill="none" xmlns="http://www.w3.org/2000/svg">
<rect x="0.5" y="0.5" width="35" height="35" rx="17.5" stroke="white"/>
<path d="M12.0411 28.1819C12.0411 28.3267 11.8742 28.4425 11.6637 28.4425C11.4242 28.4642 11.2573 28.3484 11.2573 28.1819C11.2573 28.0372 11.4242 27.9214 11.6347 27.9214C11.8524 27.8997 12.0411 28.0155 12.0411 28.1819ZM9.78387 27.8563C9.73307 28.001 9.87823 28.1675 10.096 28.2109C10.2847 28.2833 10.5024 28.2109 10.546 28.0661C10.5895 27.9214 10.4516 27.7549 10.2339 27.6898C10.0452 27.6392 9.83468 27.7115 9.78387 27.8563ZM12.9919 27.7332C12.7815 27.7839 12.6363 27.9214 12.6581 28.0879C12.6798 28.2326 12.8685 28.3267 13.0863 28.276C13.2968 28.2254 13.4419 28.0879 13.4202 27.9431C13.3984 27.8056 13.2024 27.7115 12.9919 27.7332ZM17.7677 0C7.70081 0 0 7.62085 0 17.659C0 25.6851 5.06613 32.5533 12.3024 34.9705C13.2315 35.137 13.5581 34.5652 13.5581 34.0948C13.5581 33.6461 13.5363 31.1709 13.5363 29.6511C13.5363 29.6511 8.45565 30.7367 7.38871 27.4944C7.38871 27.4944 6.56129 25.3884 5.37097 24.8456C5.37097 24.8456 3.70887 23.7093 5.4871 23.731C5.4871 23.731 7.29435 23.8758 8.28871 25.5982C9.87823 28.3918 12.5419 27.5885 13.5798 27.1108C13.7468 25.9529 14.2185 25.1495 14.7411 24.6719C10.6839 24.2232 6.59032 23.6369 6.59032 16.6747C6.59032 14.6844 7.14194 13.6857 8.30323 12.4119C8.11452 11.9415 7.49758 10.0019 8.49194 7.49782C10.0089 7.02739 13.5 9.45188 13.5 9.45188C14.9516 9.04659 16.5121 8.83671 18.0581 8.83671C19.604 8.83671 21.1645 9.04659 22.6161 9.45188C22.6161 9.45188 26.1073 7.02016 27.6242 7.49782C28.6186 10.0092 28.0016 11.9415 27.8129 12.4119C28.9742 13.6929 29.6855 14.6917 29.6855 16.6747C29.6855 23.6587 25.4105 24.2159 21.3532 24.6719C22.021 25.2436 22.5871 26.3292 22.5871 28.03C22.5871 30.4689 22.5653 33.4869 22.5653 34.0803C22.5653 34.5508 22.8992 35.1225 23.821 34.956C31.079 32.5533 36 25.6851 36 17.659C36 7.62085 27.8347 0 17.7677 0ZM7.05484 24.9614C6.96048 25.0337 6.98226 25.2002 7.10565 25.3377C7.22178 25.4535 7.38871 25.5042 7.48306 25.4101C7.57742 25.3377 7.55565 25.1712 7.43226 25.0337C7.31613 24.9179 7.14919 24.8673 7.05484 24.9614ZM6.27097 24.3751C6.22016 24.4692 6.29274 24.585 6.4379 24.6574C6.55403 24.7298 6.69919 24.7081 6.75 24.6067C6.80081 24.5126 6.72823 24.3969 6.58306 24.3245C6.4379 24.2811 6.32177 24.3028 6.27097 24.3751ZM8.62258 26.9516C8.50645 27.0457 8.55 27.2628 8.71694 27.4003C8.88387 27.5668 9.09435 27.5885 9.18871 27.4727C9.28306 27.3786 9.23952 27.1615 9.09436 27.024C8.93468 26.8575 8.71694 26.8358 8.62258 26.9516ZM7.79516 25.8877C7.67903 25.9601 7.67903 26.1483 7.79516 26.3147C7.91129 26.4812 8.10726 26.5536 8.20161 26.4812C8.31774 26.3871 8.31774 26.1989 8.20161 26.0325C8.1 25.866 7.91129 25.7936 7.79516 25.8877Z" fill="white"/>
</svg>
