<svg width="36" height="36" viewBox="0 0 36 36" fill="none" xmlns="http://www.w3.org/2000/svg">
<rect x="0.5" y="0.5" width="35" height="35" rx="17.5" fill="white"/>
<rect x="0.5" y="0.5" width="35" height="35" rx="17.5" stroke="white"/>
<path d="M18.0027 11.8467C14.5974 11.8467 11.8508 14.594 11.8508 18C11.8508 21.406 14.5974 24.1533 18.0027 24.1533C21.4079 24.1533 24.1546 21.406 24.1546 18C24.1546 14.594 21.4079 11.8467 18.0027 11.8467ZM18.0027 22.0004C15.8021 22.0004 14.0031 20.2064 14.0031 18C14.0031 15.7936 15.7968 13.9996 18.0027 13.9996C20.2086 13.9996 22.0022 15.7936 22.0022 18C22.0022 20.2064 20.2032 22.0004 18.0027 22.0004ZM25.8412 11.595C25.8412 12.3929 25.1987 13.0302 24.4062 13.0302C23.6085 13.0302 22.9713 12.3876 22.9713 11.595C22.9713 10.8024 23.6138 10.1598 24.4062 10.1598C25.1987 10.1598 25.8412 10.8024 25.8412 11.595ZM29.9157 13.0517C29.8247 11.1291 29.3856 9.42609 27.9775 8.02298C26.5747 6.61988 24.8721 6.18074 22.9499 6.08435C20.9689 5.97188 15.0311 5.97188 13.0501 6.08435C11.1333 6.17539 9.43068 6.61453 8.02253 8.01763C6.61439 9.42073 6.1807 11.1237 6.08433 13.0463C5.97189 15.0278 5.97189 20.9669 6.08433 22.9483C6.17535 24.8709 6.61439 26.5739 8.02253 27.977C9.43068 29.3801 11.1279 29.8193 13.0501 29.9157C15.0311 30.0281 20.9689 30.0281 22.9499 29.9157C24.8721 29.8246 26.5747 29.3855 27.9775 27.977C29.3803 26.5739 29.8193 24.8709 29.9157 22.9483C30.0281 20.9669 30.0281 15.0331 29.9157 13.0517ZM27.3564 25.0744C26.9388 26.1241 26.1303 26.9327 25.0755 27.3558C23.496 27.9824 19.7481 27.8378 18.0027 27.8378C16.2572 27.8378 12.504 27.977 10.9298 27.3558C9.88042 26.9381 9.07195 26.1294 8.64897 25.0744C8.02253 23.4946 8.16709 19.7458 8.16709 18C8.16709 16.2542 8.02789 12.5001 8.64897 10.9256C9.06659 9.87593 9.87507 9.06728 10.9298 8.6442C12.5093 8.01763 16.2572 8.16222 18.0027 8.16222C19.7481 8.16222 23.5014 8.02298 25.0755 8.6442C26.1249 9.06192 26.9334 9.87058 27.3564 10.9256C27.9828 12.5054 27.8383 16.2542 27.8383 18C27.8383 19.7458 27.9828 23.4999 27.3564 25.0744Z" fill="#191A23"/>
</svg>
