<svg width="36" height="36" viewBox="0 0 36 36" fill="none" xmlns="http://www.w3.org/2000/svg">
<rect x="0.5" y="0.5" width="35" height="35" rx="17.5" fill="white"/>
<rect x="0.5" y="0.5" width="35" height="35" rx="17.5" stroke="white"/>
<path d="M12.4777 28H8.33036V14.6473H12.4777V28ZM10.4018 12.8259C9.07589 12.8259 8 11.7277 8 10.4018C8 9.76479 8.25304 9.15389 8.70347 8.70347C9.15389 8.25304 9.76479 8 10.4018 8C11.0388 8 11.6497 8.25304 12.1001 8.70347C12.5505 9.15389 12.8036 9.76479 12.8036 10.4018C12.8036 11.7277 11.7277 12.8259 10.4018 12.8259ZM27.9955 28H23.8571V21.5C23.8571 19.9509 23.8259 17.9643 21.7009 17.9643C19.5446 17.9643 19.2143 19.6473 19.2143 21.3884V28H15.0714V14.6473H19.0491V16.4688H19.1071C19.6607 15.4196 21.0134 14.3125 23.0312 14.3125C27.2277 14.3125 28 17.0759 28 20.6652V28H27.9955Z" fill="#191A23"/>
</svg>
