<svg width="36" height="36" viewBox="0 0 36 36" fill="none" xmlns="http://www.w3.org/2000/svg">
<rect x="0.5" y="0.5" width="35" height="35" rx="17.5" fill="white"/>
<rect x="0.5" y="0.5" width="35" height="35" rx="17.5" stroke="white"/>
<path d="M26.4054 9.34219C24.1607 7.18594 21.1714 6 17.9946 6C11.4375 6 6.10179 11.1134 6.10179 17.3973C6.10179 19.4047 6.64821 21.3658 7.6875 23.096L6 29L12.3054 27.4136C14.0411 28.3223 15.9964 28.7998 17.9893 28.7998H17.9946C24.5464 28.7998 30 23.6864 30 17.4025C30 14.358 28.65 11.4984 26.4054 9.34219ZM17.9946 26.8797C16.2161 26.8797 14.475 26.4228 12.9589 25.5603L12.6 25.3549L8.86071 26.2944L9.85714 22.7982L9.62143 22.4388C8.63036 20.9295 8.11071 19.1891 8.11071 17.3973C8.11071 12.1761 12.5464 7.92522 18 7.92522C20.6411 7.92522 23.1214 8.91094 24.9857 10.7027C26.85 12.4944 27.9964 14.8714 27.9911 17.4025C27.9911 22.6288 23.4429 26.8797 17.9946 26.8797ZM23.4161 19.7846C23.1214 19.6408 21.6589 18.9529 21.3857 18.8605C21.1125 18.7629 20.9143 18.7167 20.7161 19.0042C20.5179 19.2917 19.95 19.9283 19.7732 20.1234C19.6018 20.3134 19.425 20.3391 19.1304 20.1953C17.3839 19.3585 16.2375 18.7013 15.0857 16.8069C14.7804 16.3038 15.3911 16.3397 15.9589 15.2513C16.0554 15.0614 16.0071 14.8971 15.9321 14.7533C15.8571 14.6096 15.2625 13.208 15.0161 12.6382C14.775 12.0837 14.5286 12.1607 14.3464 12.1504C14.175 12.1402 13.9768 12.1402 13.7786 12.1402C13.5804 12.1402 13.2589 12.2121 12.9857 12.4944C12.7125 12.7819 11.9464 13.4699 11.9464 14.8714C11.9464 16.273 13.0125 17.6283 13.1571 17.8183C13.3071 18.0083 15.2518 20.8833 18.2357 22.1205C20.1214 22.9009 20.8607 22.9676 21.8036 22.8342C22.3768 22.752 23.5607 22.1462 23.8071 21.4788C24.0536 20.8114 24.0536 20.2415 23.9786 20.1234C23.9089 19.9951 23.7107 19.9232 23.4161 19.7846Z" fill="#191A23"/>
</svg>
