<svg width="202" height="39" viewBox="0 0 202 39" fill="none" xmlns="http://www.w3.org/2000/svg">
<g filter="url(#filter0_d_61_8)">
<path d="M4.77692 11.499C5.0898 10.6591 5.52559 10.0058 6.08431 9.51587C6.64303 9.02591 7.31348 8.7926 8.10686 8.7926C8.49796 8.7926 8.84436 8.85093 9.14607 8.95592C9.44778 9.06091 9.71596 9.2359 9.93945 9.45754C10.1182 9.62086 10.2635 9.83084 10.3864 10.0642C10.5093 10.2975 10.6211 10.5658 10.7105 10.8574C10.8557 10.5658 11.0122 10.3091 11.191 10.0758C11.3698 9.84251 11.5597 9.64419 11.7832 9.46921C12.0514 9.25923 12.3531 9.08424 12.6883 8.96759C13.0236 8.85093 13.3923 8.7926 13.7834 8.7926C14.2863 8.7926 14.7444 8.89759 15.1802 9.11924C15.616 9.32922 15.9959 9.67919 16.32 10.1458C16.6329 10.6241 16.8787 11.2424 17.0575 11.989C17.2363 12.7356 17.3257 13.6455 17.3257 14.7304V28.5891H13.4594V14.7187C13.4594 14.3454 13.4258 14.0421 13.3588 13.8088C13.2917 13.5638 13.2023 13.3772 13.0906 13.2372C12.9789 13.1089 12.8448 13.0155 12.6995 12.9572C12.5542 12.8989 12.3978 12.8756 12.2525 12.8756C12.0849 12.8756 11.9396 12.8989 11.8167 12.9456C11.6938 12.9922 11.5709 13.0622 11.4592 13.1439C11.3698 13.2255 11.2804 13.3189 11.2133 13.4238C11.1463 13.5288 11.0792 13.6455 11.0345 13.7738V28.6008H7.29113V14.7071C7.29113 14.3338 7.25761 14.0305 7.20174 13.7971C7.14587 13.5638 7.05647 13.3772 6.95591 13.2372C6.84416 13.1089 6.72124 13.0155 6.57598 12.9572C6.43071 12.8989 6.28545 12.8756 6.11783 12.8756C5.93904 12.8756 5.77143 12.9106 5.62616 12.9805C5.4809 13.0505 5.35798 13.1555 5.24624 13.2839C5.16802 13.3772 5.0898 13.4938 5.03392 13.6222C4.97805 13.7505 4.92218 13.9021 4.86631 14.0538V28.5891H1V9.15424H4.654L4.77692 11.5107V11.499Z" fill="#2974B2" stroke="#231F20" stroke-width="0.5" stroke-miterlimit="10"/>
<path d="M26.8574 10.7991C27.1144 10.4841 27.3937 10.2041 27.6731 9.95917C28.1089 9.58587 28.5894 9.3059 29.1257 9.09592C29.6509 8.8976 30.2096 8.79261 30.8019 8.79261C31.6623 8.79261 32.4669 8.94426 33.182 9.24757C33.9083 9.55087 34.5229 10.0292 35.0481 10.6708C35.5733 11.3124 35.9756 12.1406 36.2661 13.1555C36.5567 14.1704 36.7019 15.3837 36.7019 16.8069V28.5658H32.4557V16.7719C32.4557 16.0836 32.3775 15.477 32.2322 14.9754C32.0869 14.4738 31.8746 14.0655 31.5953 13.7505C31.3159 13.4355 30.9918 13.2139 30.6007 13.0622C30.2096 12.9106 29.7738 12.8406 29.2934 12.8406C28.9134 12.8406 28.567 12.8872 28.243 12.9689C27.9189 13.0506 27.6172 13.1789 27.3602 13.3422C27.1144 13.4822 26.8909 13.6572 26.7009 13.8671C26.511 14.0771 26.321 14.2988 26.1534 14.5437V28.5658H21.9071V1H26.1534V11.8257C26.3657 11.4524 26.6003 11.1141 26.8685 10.7991H26.8574Z" fill="#2974B2" stroke="#231F20" stroke-width="0.5" stroke-miterlimit="10"/>
<path d="M40.6688 14.6837C40.9593 13.4588 41.3839 12.4206 41.9427 11.5457C42.5014 10.6708 43.183 9.99417 43.9876 9.51588C44.7921 9.03759 45.6972 8.80428 46.7253 8.80428C47.5857 8.80428 48.3567 8.99093 49.0048 9.35256C49.6641 9.71419 50.2452 10.2391 50.7592 10.9041V1H55.0166V28.5658H51.1838L50.9715 26.536C50.4575 27.2942 49.8429 27.8775 49.1389 28.2975C48.4349 28.7174 47.6192 28.9274 46.6917 28.9274C45.6861 28.9274 44.7809 28.6824 43.9764 28.1808C43.1718 27.6792 42.5014 27.0026 41.9538 26.1277C41.3951 25.2528 40.9705 24.2145 40.6688 23.013C40.3783 21.8114 40.2218 20.5049 40.2218 19.0933V18.72C40.2218 17.2502 40.3671 15.897 40.6576 14.6837H40.6688ZM44.6468 21.3681C44.7586 22.068 44.9597 22.6747 45.2167 23.1879C45.4849 23.7129 45.8201 24.1329 46.2448 24.4245C46.6582 24.7278 47.1722 24.8678 47.7757 24.8678C48.5132 24.8678 49.1166 24.6811 49.5971 24.3078C50.0776 23.9345 50.4687 23.4329 50.748 22.7796V14.917C50.4687 14.2638 50.0776 13.7505 49.5971 13.3889C49.1166 13.0272 48.5132 12.8406 47.798 12.8406C47.1946 12.8406 46.6806 12.9922 46.2671 13.2955C45.8425 13.5988 45.4961 14.0188 45.2391 14.5437C44.9709 15.0804 44.7809 15.7103 44.658 16.4219C44.5351 17.1335 44.4792 17.8918 44.4792 18.7084V19.0817C44.4792 19.8983 44.5351 20.6565 44.658 21.3564L44.6468 21.3681Z" fill="#2974B2" stroke="#231F20" stroke-width="0.5" stroke-miterlimit="10"/>
<path d="M69.5767 9.15426V24.5178H74.0576V28.5775H60.5814V24.5178H65.2858V13.2255H60.5814V9.15426H69.5767ZM65.1517 3.11148C65.2634 2.78485 65.4311 2.49321 65.6434 2.2599C65.8557 2.03825 66.1127 1.8516 66.4144 1.72328C66.7161 1.59496 67.0513 1.52496 67.4089 1.52496C68.1576 1.52496 68.761 1.76994 69.208 2.27156C69.6549 2.77318 69.8673 3.40312 69.8673 4.18472C69.8673 4.96631 69.6438 5.59625 69.208 6.09787C68.761 6.59949 68.1688 6.84447 67.4089 6.84447C67.0402 6.84447 66.7049 6.77448 66.4144 6.64616C66.1127 6.51783 65.8557 6.33118 65.6434 6.08621C65.4311 5.86456 65.2634 5.58459 65.1517 5.24629C65.0288 4.91965 64.9729 4.55802 64.9729 4.17305C64.9729 3.78809 65.0288 3.43812 65.1517 3.09982V3.11148Z" fill="#2974B2" stroke="#231F20" stroke-width="0.5" stroke-miterlimit="10"/>
<path d="M91.8695 8.94426C92.417 9.04925 92.8528 9.15424 93.188 9.27089L92.5623 14.2404C92.0036 14.0888 91.4337 13.9721 90.8414 13.8905C90.2604 13.8088 89.7017 13.7738 89.1653 13.7738C88.6289 13.7738 88.1149 13.8321 87.6791 13.9488C87.2433 14.0654 86.841 14.2288 86.4946 14.4621C86.0812 14.7304 85.7236 15.057 85.4219 15.4653C85.1314 15.8736 84.8855 16.3519 84.6844 16.9002V28.5658H80.4382V9.15424H84.3939L84.5615 11.8956L84.595 12.3273C85.2655 11.2307 86.07 10.3675 87.0087 9.73751C87.9473 9.10757 88.9642 8.7926 90.0816 8.7926C90.7185 8.7926 91.3108 8.83927 91.8583 8.94426H91.8695Z" fill="#2974B2" stroke="#231F20" stroke-width="0.5" stroke-miterlimit="10"/>
<path d="M110.642 8.94426C111.19 9.04925 111.626 9.15424 111.961 9.27089L111.335 14.2404C110.776 14.0888 110.207 13.9721 109.614 13.8905C109.033 13.8088 108.474 13.7738 107.938 13.7738C107.402 13.7738 106.888 13.8321 106.452 13.9488C106.016 14.0654 105.614 14.2288 105.267 14.4621C104.854 14.7304 104.496 15.057 104.195 15.4653C103.904 15.8736 103.658 16.3519 103.457 16.9002V28.5658H99.211V9.15424H103.167L103.334 11.8956L103.368 12.3273C104.038 11.2307 104.843 10.3675 105.781 9.73751C106.72 9.10757 107.737 8.7926 108.854 8.7926C109.491 8.7926 110.084 8.83927 110.631 8.94426H110.642Z" fill="#2974B2" stroke="#231F20" stroke-width="0.5" stroke-miterlimit="10"/>
<path d="M126.253 22.453C126.141 22.2314 125.929 22.0097 125.638 21.8114C125.337 21.6247 124.934 21.4381 124.431 21.2748C123.929 21.1115 123.303 20.9365 122.543 20.7732C121.571 20.5515 120.688 20.2599 119.895 19.9216C119.101 19.5833 118.408 19.1633 117.839 18.6734C117.269 18.1951 116.822 17.6351 116.498 17.0052C116.174 16.3752 116.017 15.6403 116.017 14.812C116.017 13.9838 116.185 13.2489 116.509 12.5139C116.833 11.779 117.302 11.1491 117.917 10.5891C118.531 10.0292 119.269 9.59753 120.152 9.28256C121.023 8.95592 122.018 8.7926 123.113 8.7926C124.208 8.7926 125.292 8.95592 126.208 9.27089C127.124 9.58586 127.907 10.0175 128.544 10.5774C129.169 11.1374 129.661 11.8023 129.996 12.5723C130.331 13.3422 130.499 14.1704 130.499 15.0687H126.253C126.253 14.7421 126.208 14.4387 126.119 14.1588C126.029 13.8788 125.884 13.6222 125.705 13.4005C125.448 13.0972 125.102 12.8639 124.677 12.6772C124.241 12.5023 123.727 12.4089 123.113 12.4089C122.599 12.4089 122.141 12.4673 121.75 12.5839C121.358 12.7006 121.046 12.8756 120.8 13.0855C120.576 13.2722 120.409 13.5055 120.286 13.7621C120.163 14.0188 120.107 14.2871 120.107 14.5787C120.107 14.8704 120.163 15.127 120.263 15.372C120.364 15.617 120.543 15.8386 120.811 16.0253C121.068 16.2236 121.414 16.4102 121.861 16.5735C122.308 16.7369 122.878 16.8769 123.571 16.9935C124.566 17.1802 125.493 17.4251 126.353 17.7284C127.214 18.0317 127.951 18.405 128.566 18.8717C129.192 19.35 129.672 19.9332 130.03 20.5982C130.376 21.2748 130.555 22.0797 130.555 23.013C130.555 23.8762 130.376 24.6695 130.03 25.3927C129.683 26.116 129.18 26.7459 128.544 27.2709C127.895 27.7958 127.102 28.2041 126.186 28.4958C125.269 28.7874 124.241 28.9391 123.113 28.9391C121.872 28.9391 120.777 28.7524 119.816 28.3675C118.867 27.9825 118.062 27.4809 117.425 26.8626C116.788 26.256 116.297 25.556 115.972 24.7745C115.637 23.9929 115.481 23.1996 115.481 22.418H119.526C119.559 22.943 119.682 23.3979 119.895 23.7712C120.107 24.1445 120.386 24.4478 120.722 24.6811C121.057 24.9261 121.437 25.0894 121.872 25.2061C122.308 25.3111 122.755 25.3694 123.213 25.3694C123.761 25.3694 124.241 25.3111 124.655 25.1944C125.068 25.0778 125.404 24.9261 125.672 24.7395C125.929 24.5528 126.119 24.3312 126.242 24.0745C126.365 23.8295 126.432 23.5496 126.432 23.2463C126.432 22.943 126.376 22.6863 126.253 22.453Z" fill="#2974B2" stroke="#231F20" stroke-width="0.5" stroke-miterlimit="10"/>
<path d="M136.086 36.3234C135.784 36.2651 135.449 36.1717 135.092 36.0551L135.606 32.2521C135.773 32.2521 135.997 32.2521 136.265 32.2754C136.533 32.2988 136.757 32.2988 136.913 32.2988C137.248 32.2988 137.55 32.1704 137.807 31.9255C138.064 31.6805 138.288 31.4122 138.466 31.1322C138.645 30.8522 138.79 30.6306 138.869 30.4906C138.947 30.3506 139.059 30.1406 139.181 29.884L140.165 27.7492L133.17 9.15424H137.818L141.606 20.5282L142.064 22.4997L142.69 20.5632L146.467 9.15424H151.16L142.78 31.4822C142.601 31.9721 142.355 32.5087 142.076 33.0804C141.785 33.652 141.416 34.1886 140.981 34.6785C140.545 35.1685 140.008 35.5768 139.383 35.9151C138.757 36.2534 138.019 36.4167 137.159 36.4167C136.757 36.4167 136.399 36.3817 136.097 36.3234H136.086Z" fill="#2974B2" stroke="#231F20" stroke-width="0.5" stroke-miterlimit="10"/>
<path d="M163.374 27.7492C163.307 27.4342 163.24 27.1076 163.195 26.7576C162.96 27.0609 162.692 27.3409 162.391 27.5975C162.089 27.8658 161.754 28.0875 161.385 28.2741C161.005 28.4724 160.591 28.6358 160.144 28.7524C159.698 28.8691 159.217 28.9274 158.692 28.9274C157.843 28.9274 157.072 28.7874 156.368 28.4958C155.664 28.2041 155.049 27.8075 154.546 27.2942C154.032 26.7809 153.641 26.1627 153.351 25.4511C153.06 24.7395 152.926 23.9695 152.926 23.1296C152.926 22.0564 153.105 21.0998 153.462 20.2715C153.82 19.4433 154.356 18.755 155.06 18.2184C155.697 17.7284 156.49 17.3551 157.44 17.0985C158.39 16.8419 159.463 16.7135 160.692 16.7135H163.061V15.5703C163.061 15.1154 163.005 14.7071 162.882 14.3454C162.759 13.9838 162.581 13.6688 162.335 13.4005C162.078 13.1205 161.765 12.9106 161.385 12.7589C161.005 12.6072 160.558 12.5373 160.044 12.5373C159.597 12.5373 159.206 12.5956 158.882 12.7239C158.558 12.8522 158.29 13.0272 158.088 13.2489C157.91 13.4472 157.764 13.6921 157.686 13.9838C157.608 14.2754 157.552 14.5904 157.552 14.9404H153.306C153.306 14.1121 153.462 13.3305 153.775 12.5839C154.088 11.8373 154.546 11.1957 155.138 10.6241C155.731 10.0642 156.457 9.62086 157.317 9.28256C158.178 8.95592 159.161 8.7926 160.279 8.7926C161.273 8.7926 162.201 8.93259 163.061 9.22423C163.921 9.51587 164.67 9.93583 165.296 10.4958C165.922 11.0557 166.424 11.7673 166.782 12.6189C167.14 13.4705 167.318 14.4621 167.318 15.5936V23.9229C167.318 24.9611 167.374 25.8244 167.486 26.5126C167.598 27.1892 167.765 27.7842 167.978 28.2741V28.5774H163.676C163.575 28.3441 163.486 28.0642 163.419 27.7492H163.374ZM160.781 24.8911C161.15 24.7745 161.474 24.6111 161.776 24.4245C162.066 24.2378 162.323 24.0162 162.536 23.7712C162.748 23.5262 162.916 23.2813 163.039 23.0246V19.6883H160.871C160.212 19.6883 159.642 19.7583 159.172 19.9099C158.703 20.0616 158.323 20.2715 158.021 20.5282C157.731 20.8082 157.507 21.1348 157.362 21.5081C157.217 21.8814 157.15 22.2897 157.15 22.733C157.15 23.0829 157.206 23.3979 157.306 23.6896C157.407 23.9812 157.563 24.2262 157.776 24.4362C157.977 24.6228 158.234 24.7861 158.535 24.8911C158.837 25.0078 159.184 25.0661 159.586 25.0661C160.01 25.0661 160.413 25.0078 160.781 24.8911Z" fill="#2974B2" stroke="#231F20" stroke-width="0.5" stroke-miterlimit="10"/>
<path d="M193.718 24.2612V28.5658H198.718V24.2612H193.835H193.718ZM186.415 1H182.158V10.8924C181.644 10.2275 181.063 9.70253 180.404 9.34089C179.755 8.97926 178.996 8.79261 178.124 8.79261C177.096 8.79261 176.18 9.03759 175.386 9.51588C174.582 9.99417 173.9 10.6708 173.341 11.534C172.783 12.4089 172.358 13.4588 172.067 14.6837C171.777 15.897 171.632 17.2502 171.632 18.72V19.0933C171.632 20.5049 171.777 21.8114 172.079 23.013C172.369 24.2145 172.794 25.2528 173.364 26.1277C173.911 27.0026 174.582 27.6909 175.386 28.1808C176.18 28.6824 177.085 28.9274 178.09 28.9274C179.018 28.9274 179.834 28.7174 180.538 28.2975C181.242 27.8775 181.856 27.2942 182.37 26.5476L182.583 28.5658H188.795V24.2378H186.393L186.415 1ZM182.158 22.7913C181.867 23.4329 181.487 23.9462 181.007 24.3195C180.515 24.6928 179.912 24.8678 179.174 24.8678C178.582 24.8678 178.068 24.7278 177.655 24.4245C177.23 24.1212 176.895 23.7129 176.627 23.1879C176.358 22.6747 176.168 22.068 176.057 21.3681C175.934 20.6682 175.878 19.9099 175.878 19.0933V18.72C175.878 17.9034 175.945 17.1452 176.068 16.4336C176.18 15.722 176.381 15.092 176.638 14.5554C176.906 14.0305 177.252 13.6105 177.677 13.3072C178.102 13.0039 178.604 12.8522 179.208 12.8522C179.934 12.8522 180.538 13.0272 181.007 13.4005C181.487 13.7622 181.867 14.2754 182.158 14.9287V22.7913Z" fill="#2974B2" stroke="#231F20" stroke-width="0.5" stroke-miterlimit="10"/>
</g>
<defs>
<filter id="filter0_d_61_8" x="0.75" y="0.75" width="200.418" height="38.1167" filterUnits="userSpaceOnUse" color-interpolation-filters="sRGB">
<feFlood flood-opacity="0" result="BackgroundImageFix"/>
<feColorMatrix in="SourceAlpha" type="matrix" values="0 0 0 0 0 0 0 0 0 0 0 0 0 0 0 0 0 0 127 0" result="hardAlpha"/>
<feOffset dx="2.2" dy="2.2"/>
<feColorMatrix type="matrix" values="0 0 0 0 0.137255 0 0 0 0 0.121569 0 0 0 0 0.12549 0 0 0 1 0"/>
<feBlend mode="normal" in2="BackgroundImageFix" result="effect1_dropShadow_61_8"/>
<feBlend mode="normal" in="SourceGraphic" in2="effect1_dropShadow_61_8" result="shape"/>
</filter>
</defs>
</svg>
